<svg xmlns="http://www.w3.org/2000/svg" width="143" height="128" fill="none"><g clip-path="url(#clip0_294_6205)"><path fill="url(#paint0_linear_294_6205)" d="M59.402 88.517V13.489c0-1.083-.788-1.969-1.773-1.969H7.389c-.986 0-1.774.886-1.774 1.97v75.027h53.787z"/><path fill="#C5D1C3" d="M31.918 46.966c7.29 0 13.2-5.907 13.2-13.194 0-7.286-5.91-13.194-13.2-13.194-7.29 0-13.2 5.908-13.2 13.194 0 7.287 5.91 13.194 13.2 13.194z"/><path fill="url(#paint1_radial_294_6205)" d="M38.518 32.788c-.394-1.182-.591-2.363-.493-3.643v-.493c0-3.347-2.66-6.203-6.107-6.203-3.35 0-6.206 2.659-6.206 6.105v.59c.098 1.182-.099 2.462-.493 3.644-1.182 3.643.69 7.581 4.433 8.861 3.645 1.182 7.585-.689 8.866-4.43a6.827 6.827 0 000-4.431z"/><path fill="url(#paint2_linear_294_6205)" d="M34.971 36.234l-.59-3.939h-5.025l-.492 3.939h6.107z"/><path fill="url(#paint3_linear_294_6205)" d="M31.918 34.757c1.576 0 2.955.788 2.955.788l-.197-1.576h-3.152l.394.788z"/><path fill="url(#paint4_radial_294_6205)" d="M36.843 27.372l-.886-.197c-1.675-.393-3.054-1.477-4.04-2.953a6.482 6.482 0 01-4.038 2.953l-.887.197c-.985 2.265-.197 4.923 1.872 6.4l.098.099c1.872 1.28 4.236 1.181 6.108-.099 1.97-1.477 2.66-4.135 1.773-6.4z"/><path fill="url(#paint5_radial_294_6205)" d="M43.246 37.71a5.869 5.869 0 00-4.925-2.658c-.493 0-1.084.099-1.576.197l-1.38.394c-2.265.59-4.63.59-6.895 0l-1.38-.394c-.492-.098-1.083-.197-1.575-.197-1.97 0-3.842.985-4.926 2.659-.295.394-.493.886-.69 1.378 2.956 6.696 10.738 9.748 17.437 6.794a13.446 13.446 0 006.797-6.794c-.296-.394-.591-.886-.887-1.378z"/><path fill="url(#paint6_radial_294_6205)" d="M25.613 45.39a13.046 13.046 0 0012.61 0v-5.316h-12.61v5.317z"/><path fill="#C5D1C3" d="M18.717 59.372l-.492-1.673c0-.099 0-.296.098-.296l1.38-.984c.098-.099.196-.296.098-.394-.099-.099-.099-.099-.197-.099h-1.675c-.099 0-.197-.098-.296-.197l-.492-1.674c0-.197-.197-.197-.394-.197a.212.212 0 00-.197.197l-.493 1.674c0 .099-.197.197-.295.197h-1.675c-.197 0-.296.099-.296.296 0 .098 0 .197.099.197l1.38.984c.098.099.098.197.098.296l-.591 1.673c0 .197 0 .296.197.394h.295l1.38-.984c.098-.099.196-.099.295 0l1.379.984c.099.099.296.099.394-.098 0-.099.099-.197 0-.296zM26.302 59.372L25.81 57.7c0-.099 0-.296.098-.296l1.38-.984c.098-.099.197-.296.098-.394-.098-.099-.098-.099-.197-.099h-1.675c-.098 0-.197-.098-.295-.197l-.591-1.674c-.099-.197-.197-.197-.394-.197a.212.212 0 00-.197.197l-.493 1.674c0 .099-.197.197-.296.197h-1.674c-.197 0-.296.099-.296.296 0 .098 0 .197.099.197l1.379.984c.099.099.099.197.099.296l-.493 1.673c0 .197 0 .296.197.394h.296l1.379-.984c.098-.099.197-.099.295 0l1.38.984c.098.099.295.099.393-.098v-.296zM33.888 59.372l-.493-1.673c0-.099 0-.296.099-.296l1.379-.984c.098-.099.197-.296.098-.394-.098-.099-.098-.099-.197-.099H33.1c-.099 0-.197-.098-.296-.197l-.492-1.674c-.099-.197-.197-.197-.394-.197a.212.212 0 00-.197.197l-.493 1.674c0 .099-.197.197-.296.197h-1.674c-.197 0-.296.099-.296.296 0 .098 0 .197.099.197l1.379.984c.098.099.098.197.098.296l-.492 1.673c0 .197 0 .296.197.394h.295l1.38-.984c.098-.099.197-.099.295 0l1.38.984c.098.099.295.099.393-.098-.098-.099-.098-.197-.098-.296zM41.473 59.372l-.492-1.673c0-.099 0-.296.098-.296l1.38-.984c.098-.099.196-.296.098-.394-.099-.099-.099-.099-.197-.099h-1.675c-.099 0-.197-.098-.296-.197l-.492-1.674c0-.197-.197-.197-.394-.197a.212.212 0 00-.197.197l-.493 1.674c0 .099-.197.197-.295.197h-1.675c-.197 0-.295.099-.295.296 0 .098 0 .197.098.197l1.38.984c.098.099.098.197.098.296l-.69 1.673c-.098.197 0 .296.197.394h.296l1.379-.984c.098-.099.197-.099.295 0l1.38.984c.098.099.295.099.394-.098.098-.099.098-.197.098-.296zM49.058 59.372l-.492-1.673c0-.099 0-.296.098-.296l1.38-.984c.098-.099.197-.296.098-.394-.099-.099-.099-.099-.197-.099H48.27c-.098 0-.197-.098-.295-.197l-.69-1.674c0-.197-.197-.197-.394-.197a.212.212 0 00-.197.197l-.492 1.674c0 .099-.197.197-.296.197h-1.675c-.197 0-.295.099-.295.296 0 .098 0 .197.098.197l1.38.984c.098.099.098.197.098.296l-.493 1.673c-.098.197 0 .296.197.394h.296l1.38-.984c.098-.099.196-.099.295 0l1.379.984c.098.099.295.099.394-.098.098-.099.098-.197.098-.296zM19.013 68.332h26.006c1.084 0 1.97.886 1.97 1.97v4.135c0 1.083-.886 1.97-1.97 1.97H19.014a1.975 1.975 0 01-1.97-1.97v-4.135c.098-1.084.886-1.97 1.97-1.97z"/><path fill="#C3D2C3" d="M132.596 11.52h-.887c.985 0 1.773.886 1.773 1.97v75.027h.887V13.489c0-1.083-.788-1.969-1.773-1.969z"/><path fill="url(#paint7_linear_294_6205)" d="M133.482 88.517V13.489c0-1.083-.788-1.969-1.773-1.969h-50.24c-.986 0-1.774.886-1.774 1.97v75.027h53.787z"/><path fill="#C5D1C3" d="M105.998 46.966c7.29 0 13.2-5.907 13.2-13.194 0-7.286-5.91-13.194-13.2-13.194-7.29 0-13.2 5.908-13.2 13.194 0 7.287 5.91 13.194 13.2 13.194z"/><path fill="url(#paint8_radial_294_6205)" d="M101.762 29.637c-.099-.394-.394-.69-.788-.69-.395.1-.69.395-.69.788 0 .099.098.296.197.394.098.099.197.296.098.493v.197c.099.393.395.59.69.492.394-.099.591-.394.493-.69"/><path fill="url(#paint9_radial_294_6205)" d="M110.135 29.637c.098-.394.394-.69.788-.69.394.1.69.395.69.788 0 .099-.099.296-.197.394-.099.099-.197.296-.099.493v.197c-.098.393-.394.59-.689.492-.395-.099-.592-.394-.493-.69"/><path fill="url(#paint10_radial_294_6205)" d="M110.529 30.228c0-2.462-1.576-4.53-4.433-4.53-2.857 0-4.531 1.97-4.63 4.431 0 1.182.394 2.363 1.281 3.25.295.295.492.787.394 1.181l-.394 2.265h6.403l-.394-2.265c-.099-.492.098-.886.394-1.181.887-.887 1.379-1.97 1.379-3.151z"/><path fill="url(#paint11_linear_294_6205)" d="M109.248 33.378c-1.773 1.773-4.63 1.871-6.403.099l-.098-.099c.295.296.492.788.394 1.182l-.394 2.265h6.403l-.394-2.265c0-.394.197-.886.492-1.182z"/><path fill="#092622" d="M101.466 29.932c.493-.098.887-.59.887-1.181v-1.083c0-.296.197-.493.492-.591a16.972 16.972 0 016.305 0c.295.098.492.295.492.59v1.084c0 .492.394.984.887 1.181l-.493-6.4c0-.197-.197-.393-.394-.492-2.462-.492-4.925-.492-7.289 0-.197 0-.394.197-.394.492l-.493 6.4z"/><path fill="#51200F" d="M109.248 33.378c-.886.887-2.068 1.379-3.25 1.379.985 0 2.068.197 2.955.69l-.099-.789a1.458 1.458 0 01.394-1.28z"/><path fill="url(#paint12_radial_294_6205)" d="M117.326 37.71c-1.083-1.673-2.955-2.658-4.925-2.658-.493 0-1.084.099-1.576.197l-1.38.394c-2.265.59-4.63.59-6.895 0l-1.379-.394c-.493-.098-1.084-.197-1.577-.197-1.97 0-3.842.985-4.925 2.659-.296.394-.493.886-.69 1.378 2.956 6.696 10.738 9.748 17.437 6.794a13.448 13.448 0 006.797-6.794c-.296-.394-.591-.886-.887-1.378z"/><path fill="#C5D1C3" d="M92.797 59.372l-.492-1.673c0-.099 0-.296.098-.296l1.38-.984c.098-.099.196-.296.098-.394-.099-.099-.099-.099-.197-.099h-1.675c-.099 0-.197-.098-.296-.197l-.492-1.674c0-.197-.197-.197-.394-.197a.212.212 0 00-.197.197l-.493 1.674c0 .099-.197.197-.295.197h-1.675c-.197 0-.295.099-.295.296 0 .098 0 .197.098.197l1.38.984c.098.099.098.197.098.296l-.493 1.673c-.098.197 0 .296.197.394h.296l1.379-.984c.098-.099.197-.099.295 0l1.38.984c.098.099.295.099.394-.098-.099-.099 0-.197-.099-.296zM100.382 59.372L99.89 57.7c0-.099 0-.296.098-.296l1.38-.984c.098-.099.197-.296.098-.394-.098-.099-.098-.099-.197-.099h-1.773c-.099 0-.197-.098-.296-.197l-.492-1.674c0-.197-.197-.197-.394-.197a.212.212 0 00-.197.197l-.493 1.674c0 .099-.197.197-.295.197h-1.675c-.197 0-.296.099-.296.296 0 .098 0 .197.099.197l1.38.984c.098.099.098.197.098.296l-.493 1.673c0 .197 0 .296.197.394h.296l1.379-.984c.098-.099.197-.099.295 0l1.38.984c.098.099.295.099.393-.098v-.296zM107.968 59.372l-.493-1.673c0-.099 0-.296.099-.296l1.379-.984c.098-.099.197-.296.098-.394-.098-.099-.098-.099-.197-.099h-1.674c-.099 0-.197-.098-.296-.197l-.492-1.674c-.099-.197-.197-.197-.394-.197a.211.211 0 00-.197.197l-.493 1.674c0 .099-.197.197-.296.197h-1.674c-.197 0-.296.099-.296.296 0 .098 0 .197.099.197l1.379.984c.098.099.098.197.098.296l-.492 1.673c0 .197 0 .296.197.394h.295l1.38-.984c.098-.099.197-.099.295 0l1.379.984c.099.099.296.099.394-.098-.098-.099-.098-.197-.098-.296zM115.553 59.372l-.492-1.673c0-.099 0-.296.098-.296l1.379-.984c.099-.099.197-.296.099-.394-.099-.099-.099-.099-.197-.099h-1.675c-.098 0-.197-.098-.295-.197l-.493-1.674c-.098-.197-.197-.197-.394-.197a.211.211 0 00-.197.197l-.493 1.674c0 .099-.197.197-.295.197h-1.675c-.197 0-.295.099-.295.296 0 .098 0 .197.098.197l1.379.984c.099.099.099.197.099.296l-.493 1.673c0 .197 0 .296.197.394h.296l1.379-.984c.099-.099.197-.099.296 0l1.379.984c.098.099.295.099.394-.098-.099-.099-.099-.197-.099-.296zM123.138 59.372l-.492-1.673c0-.099 0-.296.098-.296l1.38-.984c.098-.099.197-.296.098-.394-.098-.099-.098-.099-.197-.099h-1.675c-.098 0-.197-.098-.295-.197l-.493-1.674c-.098-.197-.197-.197-.394-.197-.098 0-.197.099-.197.197l-.492 1.674c0 .099-.197.197-.296.197h-1.675c-.197 0-.295.099-.295.296 0 .098 0 .197.098.197l1.38.984c.098.099.098.197.098.296l-.492 1.673c-.099.197 0 .296.197.394h.295l1.379-.984c.099-.099.197-.099.296 0l1.379.984c.098.099.295.099.394-.098-.099-.099-.099-.197-.099-.296zM93.191 68.332h26.007c1.084 0 1.97.886 1.97 1.97v4.135c0 1.083-.886 1.97-1.97 1.97H93.191a1.975 1.975 0 01-1.97-1.97v-4.135c0-1.084.788-1.97 1.97-1.97z"/><path fill="url(#paint13_linear_294_6205)" d="M20.983 97.674h97.23c.69 0 1.182.492 1.182 1.181 0 .69-.492 1.182-1.182 1.182h-97.23c-.69 0-1.182-.492-1.182-1.182 0-.689.492-1.181 1.182-1.181z"/><path fill="#C3D2C3" d="M103.141 0h-.887c1.281 0 2.266 1.083 2.266 2.462v97.575h.887V2.462c0-1.379-.985-2.462-2.266-2.462z"/><path fill="url(#paint14_linear_294_6205)" d="M104.619 100.037V2.462c0-1.379-.986-2.462-2.266-2.462h-65.51c-1.28 0-2.266 1.083-2.266 2.462v97.575h70.042z"/><path fill="#C5D1C3" d="M68.76 46.375c9.63 0 17.437-7.802 17.437-17.427S78.391 11.52 68.761 11.52c-9.63 0-17.437 7.803-17.437 17.428s7.807 17.427 17.437 17.427z"/><path fill="url(#paint15_radial_294_6205)" d="M68.662 16.246c-3.842.099-6.896 3.25-6.797 6.99 0 2.167 1.084 4.235 2.857 5.515.098 0 .098.098.098.098.099.099.197.099.296.197L64.722 32l3.94.59 3.94-.59-.295-2.363c0-.394.099-.69.394-.886 3.152-2.265 3.842-6.597 1.576-9.65a6.907 6.907 0 00-5.615-2.855z"/><path fill="url(#paint16_radial_294_6205)" d="M77.035 27.766a3.053 3.053 0 10.002-6.106 3.053 3.053 0 00-.002 6.106z"/><path fill="url(#paint17_radial_294_6205)" d="M68.86 16.246c-1.676 0-3.35.59-4.532 1.674 2.068 4.234 5.812 7.483 10.343 8.861h.099c1.97-3.249.886-7.483-2.364-9.55-1.084-.591-2.365-.985-3.547-.985z"/><path fill="#A06069" d="M68.76 30.228c.296-.099.493-.099.789-.197h-.788c-1.281 0-2.463-.296-3.547-.985l-.098.886a5.824 5.824 0 003.645.296z"/><path fill="url(#paint18_radial_294_6205)" d="M83.734 34.068c-1.477-2.166-3.842-3.446-6.502-3.545a7.5 7.5 0 00-2.068.296l-1.872.492a17.675 17.675 0 01-9.063 0l-1.872-.492a7.5 7.5 0 00-2.068-.296c-2.66 0-5.025 1.28-6.502 3.545-.394.59-.69 1.181-.985 1.87 3.842 8.764 14.185 12.8 22.953 8.862a17.668 17.668 0 008.866-8.861c-.197-.591-.493-1.28-.887-1.871z"/><path fill="#F4CE8B" d="M51.62 62.228l-.69-2.166c-.098-.197 0-.296.099-.394l1.773-1.28c.197-.099.197-.394.098-.493-.098-.098-.197-.197-.295-.197h-2.266c-.197 0-.295-.098-.394-.295l-.69-2.068c-.098-.197-.295-.295-.492-.197a.212.212 0 00-.197.197l-.69 2.068c-.098.197-.197.296-.394.296h-2.265a.424.424 0 00-.395.393c0 .099.099.197.197.296l1.774 1.28c.098.098.197.295.098.394l-.69 2.067c-.098.197 0 .394.198.493.098 0 .197 0 .295-.099l1.773-1.28c.099-.098.296-.098.493 0l1.773 1.28c.197.099.394.099.493-.098.394 0 .492-.099.394-.197zM61.47 62.228l-.689-2.166c-.098-.197 0-.296.099-.394l1.773-1.28c.197-.099.197-.394.099-.493-.099-.098-.198-.197-.296-.197H60.19c-.197 0-.295-.098-.394-.295l-.69-2.068c-.098-.197-.295-.295-.492-.197a.212.212 0 00-.197.197l-.69 2.068c-.098.197-.197.296-.394.296h-2.265a.424.424 0 00-.394.393c0 .099.098.197.197.296l1.773 1.28c.098.098.197.295.098.394l-.69 2.067c-.098.197 0 .394.198.493.098 0 .197 0 .295-.099l1.773-1.28c.099-.098.296-.098.493 0l1.773 1.28c.197.099.394.099.493-.098.394 0 .492-.099.394-.197zM71.322 62.228l-.69-2.166c-.098-.197 0-.296.099-.394l1.773-1.28c.197-.099.197-.394.099-.493-.099-.098-.197-.197-.296-.197h-2.266c-.197 0-.295-.098-.394-.295l-.69-2.068c-.098-.197-.295-.295-.492-.197a.212.212 0 00-.197.197l-.69 2.068c-.098.197-.197.296-.394.296H64.92a.424.424 0 00-.394.393c0 .099.098.197.197.296l1.773 1.28c.098.098.197.295.098.394l-.69 2.067c-.098.197 0 .394.198.493.098 0 .197 0 .295-.099l1.774-1.28c.098-.098.295-.098.492 0l1.773 1.28c.197.099.394.099.493-.098.492.098.492-.099.394-.197zM81.173 62.228l-.69-2.166c-.098-.197 0-.296.099-.394l1.773-1.28c.197-.099.197-.394.099-.493-.099-.098-.197-.197-.296-.197h-2.266c-.197 0-.295-.098-.394-.295l-.69-2.068c-.098-.197-.295-.295-.492-.197a.212.212 0 00-.197.197l-.69 2.068c-.098.197-.197.296-.394.296H74.77a.424.424 0 00-.394.393c0 .099.098.197.197.296l1.773 1.28c.099.098.197.295.099.394l-.69 2.067c-.099.197 0 .394.197.493.098 0 .197 0 .295-.099l1.774-1.28c.098-.098.295-.098.492 0l1.773 1.28c.197.099.394.099.493-.098.493.098.493-.099.394-.197zM91.024 62.228l-.69-2.166c-.098-.197 0-.296.099-.394l1.773-1.28c.197-.099.197-.394.099-.493-.099-.098-.197-.197-.296-.197h-2.266c-.197 0-.295-.098-.394-.295l-.69-2.068c-.098-.197-.295-.295-.492-.197a.212.212 0 00-.197.197l-.69 2.068c-.098.197-.196.296-.393.296H84.62a.424.424 0 00-.394.393c0 .099.098.197.197.296l1.773 1.28c.099.098.197.295.099.394l-.69 2.067c-.099.197 0 .394.197.493.099 0 .197 0 .296-.099l1.773-1.28c.098-.098.295-.098.492 0l1.773 1.28c.198.099.394.099.493-.098.493.098.493-.099.394-.197z"/><path fill="url(#paint19_linear_294_6205)" d="M51.718 73.846h34.479c1.28 0 2.266.985 2.266 2.265v5.907c0 1.28-.985 2.265-2.266 2.265H51.718c-1.28 0-2.266-.984-2.266-2.264V76.11c0-1.182 1.084-2.265 2.266-2.265z"/><path fill="#C3D2C3" d="M104.224 75.323c-7.585-6.498-19.012-6.203-26.204.985-6.304 6.301-7.486 16.147-2.758 23.729h28.864V75.323h.098z"/><path fill="url(#paint20_linear_294_6205)" d="M92.108 100.135c9.466 0 17.141-7.582 17.141-16.935 0-9.353-7.675-16.936-17.141-16.936-9.467 0-17.141 7.583-17.141 16.936s7.674 16.935 17.14 16.935z"/><path fill="url(#paint21_radial_294_6205)" d="M92.108 100.135c9.466 0 17.141-7.582 17.141-16.935 0-9.353-7.675-16.935-17.141-16.935-9.467 0-17.141 7.582-17.141 16.935 0 9.353 7.674 16.935 17.14 16.935z" opacity=".3"/><path fill="url(#paint22_linear_294_6205)" d="M92.108 100.135c9.466 0 17.141-7.582 17.141-16.935 0-9.353-7.675-16.935-17.141-16.935-9.467 0-17.141 7.582-17.141 16.935 0 9.353 7.674 16.935 17.14 16.935z" opacity=".35"/><path fill="#01CDBE" d="M77.824 86.055c0-9.354 7.683-16.935 17.14-16.935 3.842 0 7.586 1.28 10.64 3.643-3.251-4.135-8.275-6.597-13.496-6.498-9.457 0-17.141 7.581-17.141 16.935 0 5.317 2.561 10.141 6.502 13.292-2.365-2.954-3.645-6.695-3.645-10.437z" opacity=".48"/><path fill="#14A800" d="M107.771 71.68l-2.069-2.068C98.215 62.13 86 62.13 78.513 69.711c-7.487 7.483-7.487 19.594 0 27.077l2.069 2.067c7.487 7.483 19.702 7.582 27.189.099 7.487-7.483 7.585-19.692 0-27.274 0 .098 0 0 0 0zm-3.251.098c-.099-.098-.197-.197-.197-.295 0 .197.098.295.197.295zm-29.06 9.059c.098-.394.098-.788.196-1.182-.098.296-.197.69-.197 1.182-.197 1.083-.197 2.166-.197 3.25 0-1.182 0-2.266.197-3.25zm0 4.726c-.1-.492-.1-.985-.1-1.575-.098.59 0 1.083.1 1.575zm0 .099c0 .295.098.492.098.787 0-.295-.099-.492-.099-.787zm5.023 9.649l.197.197a.212.212 0 01-.197-.197zm23.544-.197a16.194 16.194 0 01-22.854-.985 16.175 16.175 0 01.985-22.843c6.403-5.81 16.254-5.612 22.362.492 6.108 6.696 5.812 16.936-.493 23.336z"/><path fill="url(#paint23_linear_294_6205)" d="M78.513 96.788c7.487 7.483 19.702 7.483 27.189-.099 7.487-7.483 7.487-19.594 0-27.077l2.069 2.068c7.486 7.483 7.585 19.692.098 27.175-7.487 7.483-19.702 7.582-27.189.099l-.098-.099-2.07-2.067z"/><path fill="url(#paint24_radial_294_6205)" d="M111.514 98.658l-3.94 3.84a2.319 2.319 0 01-3.251 0l-.197-.197a2.316 2.316 0 010-3.249l3.94-3.84a2.32 2.32 0 013.251 0l.197.197a2.316 2.316 0 010 3.25z"/><path fill="url(#paint25_linear_294_6205)" d="M110.135 98.068c-1.379.689-2.463 1.87-3.251 3.15-.197.296-.098.591.099.887l15.761 18.609c1.971 2.363 4.236 4.431 6.601 6.301 1.97 1.477 4.728 1.28 6.403-.394 1.773-1.673 1.872-4.43.394-6.4-1.872-2.363-4.039-4.627-6.403-6.596l-18.816-15.557c-.197-.197-.492-.197-.788 0z"/><path fill="#6D2B11" d="M111.022 98.068c-.197-.197-.591-.197-.887-.099-1.379.69-2.463 1.871-3.251 3.151-.197.295-.098.591.099.886l1.773 2.068c-.591-.689 1.379-6.696 3.448-5.022l-1.182-.984z"/><path fill="url(#paint26_linear_294_6205)" d="M81.173 72.27c6.403-6.4 16.648-6.596 23.347-.492l-.493-.492c-6.6-6.597-17.24-6.597-23.84-.098-6.6 6.597-6.6 17.23-.098 23.827l.099.099.492.492c-6.108-6.695-5.91-16.935.493-23.335z"/></g><defs><radialGradient id="paint12_radial_294_6205" cx="0" cy="0" r="1" gradientTransform="matrix(16.0295 0 0 16.0215 105.241 35.105)" gradientUnits="userSpaceOnUse"><stop offset=".68" stop-color="#BDA1E7"/><stop offset=".77" stop-color="#AB92D2"/><stop offset=".97" stop-color="#7D6B9D"/><stop offset="1" stop-color="#746493"/></radialGradient><radialGradient id="paint24_radial_294_6205" cx="0" cy="0" r="1" gradientTransform="matrix(9.63758 -9.48224 3.91927 3.98348 110.147 100.894)" gradientUnits="userSpaceOnUse"><stop stop-color="#AD8D05"/><stop offset=".26" stop-color="#AF8E08"/><stop offset=".43" stop-color="#B49311"/><stop offset=".58" stop-color="#BE9B20"/><stop offset=".7" stop-color="#CAA533"/><stop offset=".77" stop-color="#D1AB3F"/><stop offset=".89" stop-color="#E5BB5D"/><stop offset="1" stop-color="#FCCD81"/></radialGradient><radialGradient id="paint5_radial_294_6205" cx="0" cy="0" r="1" gradientTransform="matrix(16.0295 0 0 16.0215 31.16 35.105)" gradientUnits="userSpaceOnUse"><stop offset=".68" stop-color="#EB5A38"/><stop offset=".76" stop-color="#D65033"/><stop offset=".94" stop-color="#A13627"/><stop offset="1" stop-color="#8D2C23"/></radialGradient><radialGradient id="paint6_radial_294_6205" cx="0" cy="0" r="1" gradientTransform="matrix(10.1339 0 0 10.1288 31.637 38.94)" gradientUnits="userSpaceOnUse"><stop offset=".68" stop-color="#EB5A38"/><stop offset=".76" stop-color="#D65033"/><stop offset=".94" stop-color="#A13627"/><stop offset="1" stop-color="#8D2C23"/></radialGradient><radialGradient id="paint8_radial_294_6205" cx="0" cy="0" r="1" gradientTransform="matrix(1.01586 -.24436 .50312 2.09158 101.054 29.257)" gradientUnits="userSpaceOnUse"><stop offset=".38" stop-color="#BC5118"/><stop offset=".59" stop-color="#BA5018"/><stop offset=".69" stop-color="#B24C17"/><stop offset=".77" stop-color="#A54616"/><stop offset=".84" stop-color="#933D14"/><stop offset=".9" stop-color="#7B3212"/><stop offset=".92" stop-color="#6D2B11"/></radialGradient><radialGradient id="paint9_radial_294_6205" cx="0" cy="0" r="1" gradientTransform="matrix(-1.01346 -.24019 .49533 -2.09004 106.309 20.794)" gradientUnits="userSpaceOnUse"><stop offset=".38" stop-color="#BC5118"/><stop offset=".59" stop-color="#BA5018"/><stop offset=".69" stop-color="#B24C17"/><stop offset=".77" stop-color="#A54616"/><stop offset=".84" stop-color="#933D14"/><stop offset=".9" stop-color="#7B3212"/><stop offset=".92" stop-color="#6D2B11"/></radialGradient><radialGradient id="paint10_radial_294_6205" cx="0" cy="0" r="1" gradientTransform="matrix(5.10552 0 0 5.10297 105.211 29.527)" gradientUnits="userSpaceOnUse"><stop offset=".38" stop-color="#BC5118"/><stop offset=".59" stop-color="#BA5018"/><stop offset=".69" stop-color="#B24C17"/><stop offset=".77" stop-color="#A54616"/><stop offset=".84" stop-color="#933D14"/><stop offset=".9" stop-color="#7B3212"/><stop offset=".92" stop-color="#6D2B11"/></radialGradient><radialGradient id="paint4_radial_294_6205" cx="0" cy="0" r="1" gradientTransform="matrix(6.28991 0 0 6.28677 30.983 27.993)" gradientUnits="userSpaceOnUse"><stop offset=".68" stop-color="#DE9855"/><stop offset=".86" stop-color="#CB8346"/><stop offset="1" stop-color="#B97038"/></radialGradient><radialGradient id="paint1_radial_294_6205" cx="0" cy="0" r="1" gradientTransform="matrix(9.65809 0 0 9.65327 28.966 24.657)" gradientUnits="userSpaceOnUse"><stop offset=".68" stop-color="#645528"/><stop offset=".89" stop-color="#524029"/><stop offset="1" stop-color="#47342A"/></radialGradient><radialGradient id="paint15_radial_294_6205" cx="0" cy="0" r="1" gradientTransform="matrix(8.89454 0 0 8.89009 68.036 21.86)" gradientUnits="userSpaceOnUse"><stop offset=".68" stop-color="#F7B0B2"/><stop offset=".77" stop-color="#E29DA1"/><stop offset=".96" stop-color="#AD6C74"/><stop offset="1" stop-color="#A06069"/></radialGradient><radialGradient id="paint16_radial_294_6205" cx="0" cy="0" r="1" gradientTransform="matrix(4.64242 0 0 4.6401 75.884 22.93)" gradientUnits="userSpaceOnUse"><stop offset=".38" stop-color="#BC5118"/><stop offset=".59" stop-color="#BA5018"/><stop offset=".69" stop-color="#B24C17"/><stop offset=".77" stop-color="#A54616"/><stop offset=".84" stop-color="#933D14"/><stop offset=".9" stop-color="#7B3212"/><stop offset=".92" stop-color="#6D2B11"/></radialGradient><radialGradient id="paint17_radial_294_6205" cx="0" cy="0" r="1" gradientTransform="matrix(8.66716 0 0 8.66284 68.099 19.566)" gradientUnits="userSpaceOnUse"><stop offset=".38" stop-color="#BC5118"/><stop offset=".59" stop-color="#BA5018"/><stop offset=".69" stop-color="#B24C17"/><stop offset=".77" stop-color="#A54616"/><stop offset=".84" stop-color="#933D14"/><stop offset=".9" stop-color="#7B3212"/><stop offset=".92" stop-color="#6D2B11"/></radialGradient><radialGradient id="paint18_radial_294_6205" cx="0" cy="0" r="1" gradientTransform="matrix(21.0747 0 0 21.0642 67.78 30.64)" gradientUnits="userSpaceOnUse"><stop offset=".68" stop-color="#4EA42F"/><stop offset=".81" stop-color="#448F28"/><stop offset="1" stop-color="#31691B"/></radialGradient><radialGradient id="paint21_radial_294_6205" cx="0" cy="0" r="1" gradientTransform="matrix(29.6429 0 0 29.3007 84.572 78.819)" gradientUnits="userSpaceOnUse"><stop stop-color="#01CDBE" stop-opacity="0"/><stop offset="1" stop-color="#01CDBE"/></radialGradient><linearGradient id="paint14_linear_294_6205" x1="69.57" x2="69.57" y1="100.041" y2=".001" gradientUnits="userSpaceOnUse"><stop stop-color="#E4EBE4"/><stop offset=".62" stop-color="#E6EDE6"/><stop offset=".91" stop-color="#EDF3ED"/><stop offset="1" stop-color="#F2F7F2"/></linearGradient><linearGradient id="paint2_linear_294_6205" x1="28.846" x2="34.946" y1="34.25" y2="34.25" gradientUnits="userSpaceOnUse"><stop offset=".52" stop-color="#DE9855"/><stop offset=".7" stop-color="#D48D4D"/><stop offset="1" stop-color="#B97038"/></linearGradient><linearGradient id="paint3_linear_294_6205" x1="33.167" x2="33.167" y1="35.496" y2="33.96" gradientUnits="userSpaceOnUse"><stop stop-color="#985D33" stop-opacity="0"/><stop offset=".43" stop-color="#985D33" stop-opacity=".47"/><stop offset=".82" stop-color="#985D33" stop-opacity=".85"/><stop offset="1" stop-color="#985D33"/></linearGradient><linearGradient id="paint11_linear_294_6205" x1="102.714" x2="109.239" y1="35.123" y2="35.123" gradientUnits="userSpaceOnUse"><stop offset=".31" stop-color="#BC5118"/><stop offset=".43" stop-color="#B54E17"/><stop offset=".6" stop-color="#A24416"/><stop offset=".8" stop-color="#823513"/><stop offset=".92" stop-color="#6D2B11"/></linearGradient><linearGradient id="paint7_linear_294_6205" x1="106.611" x2="106.611" y1="88.479" y2="11.562" gradientUnits="userSpaceOnUse"><stop stop-color="#F2F6F1"/><stop offset=".62" stop-color="#F0F4EF"/><stop offset=".91" stop-color="#E9EEE8"/><stop offset="1" stop-color="#E4EAE4"/></linearGradient><linearGradient id="paint19_linear_294_6205" x1="49.496" x2="88.463" y1="79.11" y2="79.11" gradientUnits="userSpaceOnUse"><stop stop-color="#EBB2B2"/><stop offset="1" stop-color="#E475B8"/></linearGradient><linearGradient id="paint20_linear_294_6205" x1="74.964" x2="109.208" y1="83.206" y2="83.206" gradientUnits="userSpaceOnUse"><stop stop-color="#fff"/><stop offset=".64" stop-color="#FDFEFD"/><stop offset=".92" stop-color="#F6F9F6"/><stop offset="1" stop-color="#F2F7F2"/></linearGradient><linearGradient id="paint13_linear_294_6205" x1="19.783" x2="119.356" y1="98.847" y2="98.847" gradientUnits="userSpaceOnUse"><stop stop-color="#C5D1C3" stop-opacity="0"/><stop offset=".01" stop-color="#C5D1C3" stop-opacity=".05"/><stop offset=".05" stop-color="#C5D1C3" stop-opacity=".3"/><stop offset=".09" stop-color="#C5D1C3" stop-opacity=".51"/><stop offset=".14" stop-color="#C5D1C3" stop-opacity=".69"/><stop offset=".18" stop-color="#C5D1C3" stop-opacity=".82"/><stop offset=".22" stop-color="#C5D1C3" stop-opacity=".92"/><stop offset=".27" stop-color="#C5D1C3" stop-opacity=".98"/><stop offset=".31" stop-color="#C5D1C3"/><stop offset=".37" stop-color="#C5D1C3"/><stop offset=".75" stop-color="#C5D1C3"/><stop offset=".8" stop-color="#C5D1C3" stop-opacity=".79"/><stop offset=".94" stop-color="#C5D1C3" stop-opacity=".23"/><stop offset="1" stop-color="#C5D1C3" stop-opacity=".01"/></linearGradient><linearGradient id="paint22_linear_294_6205" x1="80.046" x2="104.113" y1="71.172" y2="95.252" gradientUnits="userSpaceOnUse"><stop stop-color="#01CDBE" stop-opacity=".5"/><stop offset=".05" stop-color="#01CDBE" stop-opacity=".51"/><stop offset=".08" stop-color="#01CDBE" stop-opacity=".56"/><stop offset=".11" stop-color="#01CDBE" stop-opacity=".63"/><stop offset=".13" stop-color="#01CDBE" stop-opacity=".73"/><stop offset=".15" stop-color="#01CDBE" stop-opacity=".86"/><stop offset=".17" stop-color="#01CDBE"/><stop offset=".18" stop-color="#01CDBE" stop-opacity=".97"/><stop offset=".28" stop-color="#01CDBE" stop-opacity=".77"/><stop offset=".38" stop-color="#01CDBE" stop-opacity=".62"/><stop offset=".46" stop-color="#01CDBE" stop-opacity=".53"/><stop offset=".51" stop-color="#01CDBE" stop-opacity=".5"/><stop offset=".63" stop-color="#01CDBE" stop-opacity=".51"/><stop offset=".71" stop-color="#01CDBE" stop-opacity=".56"/><stop offset=".78" stop-color="#01CDBE" stop-opacity=".63"/><stop offset=".84" stop-color="#01CDBE" stop-opacity=".73"/><stop offset=".89" stop-color="#01CDBE" stop-opacity=".86"/><stop offset=".93" stop-color="#01CDBE"/></linearGradient><linearGradient id="paint23_linear_294_6205" x1="78.488" x2="113.421" y1="87.073" y2="87.073" gradientUnits="userSpaceOnUse"><stop offset=".45" stop-color="#14A800"/><stop offset=".61" stop-color="#14A500"/><stop offset=".72" stop-color="#149D00"/><stop offset=".81" stop-color="#138E00"/><stop offset=".89" stop-color="#127900"/><stop offset=".93" stop-color="#126B00"/></linearGradient><linearGradient id="paint0_linear_294_6205" x1="32.528" x2="32.528" y1="88.479" y2="11.562" gradientUnits="userSpaceOnUse"><stop stop-color="#F2F6F1"/><stop offset=".62" stop-color="#F0F4EF"/><stop offset=".91" stop-color="#E9EEE8"/><stop offset="1" stop-color="#E4EAE4"/></linearGradient><linearGradient id="paint25_linear_294_6205" x1="118.443" x2="125.714" y1="116.591" y2="109.317" gradientUnits="userSpaceOnUse"><stop stop-color="#BC5118"/><stop offset=".24" stop-color="#B84F18"/><stop offset=".46" stop-color="#AD4A17"/><stop offset=".67" stop-color="#9B4115"/><stop offset=".88" stop-color="#813413"/><stop offset="1" stop-color="#6D2B11"/></linearGradient><linearGradient id="paint26_linear_294_6205" x1="74.452" x2="100.458" y1="88.267" y2="66.918" gradientUnits="userSpaceOnUse"><stop stop-color="#126B00"/><stop offset="1" stop-color="#14A800"/></linearGradient><clipPath id="clip0_294_6205"><path fill="#fff" d="M0 0h142.841v128H0z"/></clipPath></defs></svg>