<svg width="110" height="40" viewBox="0 0 110 40" fill="none" xmlns="http://www.w3.org/2000/svg">
<path d="M22.4602 10.032C19.8746 8.38532 16.4708 8.77765 13.435 10.7221C10.4087 8.77765 7.00279 8.38532 4.42041 10.032C0.335418 12.6343 -0.161234 19.3362 3.31216 25.0019C5.8724 29.1789 9.8762 31.6264 13.4403 31.5812C17.0043 31.6264 21.0082 29.1789 23.5683 25.0019C27.0376 19.3362 26.5452 12.6343 22.4602 10.032ZM5.19016 23.8055C4.47396 22.6482 3.93359 21.387 3.58738 20.065C3.27979 18.9173 3.16219 17.7254 3.2394 16.5383C3.39441 14.4444 4.23061 12.8138 5.59296 11.9464C6.95533 11.079 8.75636 11.0263 10.6744 11.8024C10.9623 11.9195 11.247 12.055 11.5296 12.2044C10.4637 13.1951 9.53692 14.3308 8.77534 15.5795C6.66641 19.0191 6.02319 22.8468 6.7592 25.8984C6.17234 25.253 5.64696 24.5522 5.19016 23.8055ZM23.2943 20.0639C22.9476 21.3858 22.4072 22.6468 21.6915 23.8045C21.2343 24.5522 20.7089 25.2544 20.1225 25.9015C20.7804 23.166 20.3333 19.8145 18.7199 16.6716C18.6942 16.6198 18.658 16.5741 18.6138 16.5375C18.5698 16.5009 18.5185 16.4741 18.4636 16.4589C18.4086 16.4437 18.3511 16.4404 18.2948 16.4493C18.2386 16.4581 18.1847 16.4789 18.1368 16.5103L13.1071 19.7135C13.0612 19.7427 13.0215 19.7808 12.99 19.8256C12.9586 19.8705 12.9362 19.9213 12.924 19.975C12.9119 20.0287 12.9102 20.0843 12.9192 20.1387C12.9282 20.193 12.9476 20.245 12.9763 20.2918L13.7145 21.4946C13.7429 21.5413 13.7802 21.5818 13.8241 21.6138C13.8681 21.6458 13.9178 21.6687 13.9704 21.6811C14.023 21.6934 14.0775 21.6951 14.1307 21.686C14.184 21.6768 14.235 21.6571 14.2807 21.6279L17.541 19.5512C17.6465 19.8736 17.752 20.1961 17.8311 20.5186C18.1385 21.6648 18.2566 22.8552 18.1801 24.0409C18.0251 26.1337 17.1889 27.7644 15.8265 28.6328C15.1238 29.0707 14.3186 29.3083 13.4951 29.3208H13.3907C12.5671 29.3086 11.7619 29.071 11.0593 28.6328C9.69588 27.7644 8.85969 26.1337 8.70468 24.0409C8.62794 22.8538 8.74553 21.662 9.05266 20.5143C9.75935 17.8589 11.2201 15.4757 13.2515 13.6641C14.1275 12.8802 15.1253 12.2504 16.204 11.8002C18.1168 11.0241 19.921 11.0757 21.2844 11.9442C22.6479 12.8127 23.4829 14.4423 23.638 16.5361C23.7162 17.7233 23.6001 18.9156 23.2943 20.0639ZM49.2572 17.5626C46.6127 17.5626 44.4753 19.6673 44.4753 22.3447C44.4753 25.004 46.6127 27.0742 49.2572 27.0742C51.9198 27.0742 54.0571 25.0073 54.0571 22.3447C54.0571 19.6683 51.923 17.5637 49.2572 17.5637V17.5626ZM49.2572 24.5741C48.0382 24.5741 47.1104 23.569 47.1104 22.3265C47.1104 21.0839 48.0382 20.0639 49.2572 20.0639C50.4941 20.0639 51.422 21.0872 51.422 22.3297C51.422 23.5723 50.4941 24.5783 49.2572 24.5783V24.5741ZM60.0201 13.8898H55.1538C55.1012 13.8888 55.049 13.8986 55.0002 13.9186C54.9515 13.9387 54.9072 13.9686 54.87 14.0066C54.8329 14.0445 54.8037 14.0897 54.7841 14.1395C54.7646 14.1892 54.7551 14.2425 54.7562 14.2961V26.3895C54.7525 26.445 54.76 26.5005 54.7782 26.5527C54.7966 26.605 54.8253 26.6528 54.8626 26.6932C54.9001 26.7336 54.9451 26.7658 54.9952 26.7875C55.0454 26.8092 55.0993 26.8201 55.1538 26.8194H60.0201C63.9142 26.8194 66.62 24.1796 66.62 20.3391C66.62 16.4749 63.9142 13.8898 60.0201 13.8898ZM60.135 24.2656H57.4725V16.4372H60.135C62.2904 16.4372 63.7761 18.0807 63.7761 20.3337C63.7761 22.549 62.2904 24.2656 60.135 24.2656ZM76.3063 17.8228H74.4768C74.3755 17.8309 74.2808 17.8769 74.2107 17.9519C74.1407 18.0269 74.1002 18.1256 74.0971 18.2291V18.7826C73.6807 18.0807 72.739 17.5637 71.5664 17.5637C69.2847 17.5637 67.1473 19.391 67.1473 22.3094C67.1473 25.2115 69.2656 27.0721 71.5486 27.0721C72.7254 27.0721 73.686 26.5561 74.1024 25.8542V26.4261C74.103 26.5286 74.1432 26.6269 74.2142 26.6995C74.2852 26.7722 74.3814 26.8133 74.4821 26.8142H76.3116C76.3619 26.8153 76.4119 26.806 76.4586 26.787C76.5053 26.7679 76.5477 26.7394 76.5833 26.7032C76.6189 26.6668 76.6469 26.6236 76.6656 26.5759C76.6844 26.5284 76.6933 26.4773 76.6922 26.4261V18.2291C76.6938 18.1764 76.685 18.1239 76.6663 18.0747C76.6476 18.0256 76.6194 17.9807 76.5834 17.9428C76.5475 17.905 76.5044 17.8748 76.4568 17.8542C76.4092 17.8336 76.358 17.8229 76.3063 17.8228ZM72.0505 24.5945C70.8389 24.5945 69.9289 23.6453 69.9289 22.3287C69.9289 21.0119 70.8389 20.0639 72.0505 20.0639C73.2621 20.0639 74.1721 21.0108 74.1721 22.3275C74.1721 23.6443 73.2631 24.5934 72.0505 24.5934V24.5945ZM86.5757 13.8898H84.7462C84.695 13.8882 84.644 13.897 84.5961 13.9158C84.5484 13.9345 84.5047 13.9627 84.4676 13.9989C84.4306 14.035 84.4011 14.0782 84.3806 14.1261C84.3602 14.174 84.3494 14.2256 84.3486 14.2778V18.7461C83.9269 18.0807 82.9716 17.5637 81.7768 17.5637C79.5118 17.5637 77.4113 19.391 77.4113 22.3094C77.4113 25.2115 79.5298 27.0721 81.8128 27.0721C82.9894 27.0721 83.8773 26.5561 84.3666 25.8542V26.4261C84.3669 26.5288 84.407 26.6271 84.478 26.6998C84.5491 26.7724 84.6455 26.8136 84.7462 26.8142H86.5757C86.6261 26.8154 86.6762 26.8063 86.7229 26.7873C86.7697 26.7683 86.8122 26.7398 86.8477 26.7034C86.8834 26.6671 86.9114 26.6239 86.9301 26.5762C86.9487 26.5285 86.9576 26.4775 86.9564 26.4261V14.28C86.958 14.2285 86.9493 14.1772 86.9307 14.1292C86.9121 14.0813 86.8842 14.0377 86.8486 14.0012C86.8129 13.9647 86.7703 13.9359 86.7234 13.9168C86.6765 13.8976 86.6262 13.8884 86.5757 13.8898ZM82.3199 24.6171C81.1136 24.6171 80.211 23.6582 80.211 22.3275C80.211 20.9969 81.1168 20.0381 82.3199 20.0381C83.5231 20.0381 84.4288 20.9969 84.4288 22.3275C84.4288 23.6582 83.5273 24.6171 82.3199 24.6171ZM96.843 13.8898H95.0166C94.9654 13.8882 94.9143 13.897 94.8665 13.9158C94.8186 13.9345 94.7749 13.9627 94.7377 13.9988C94.7007 14.0349 94.671 14.0782 94.6505 14.1261C94.6299 14.174 94.6189 14.2255 94.6181 14.2778V18.7461C94.2016 18.0807 93.2409 17.5637 92.0463 17.5637C89.7813 17.5637 87.6808 19.391 87.6808 22.3094C87.6808 25.2115 89.8002 27.0721 92.0821 27.0721C93.2599 27.0721 94.1467 26.5561 94.636 25.8542V26.4261C94.6366 26.5288 94.6768 26.6272 94.7481 26.6999C94.8193 26.7725 94.9159 26.8136 95.0166 26.8142H96.843C96.8933 26.8154 96.9433 26.8063 96.9901 26.7873C97.0367 26.7683 97.0792 26.7397 97.1147 26.7034C97.1503 26.667 97.1781 26.6237 97.1967 26.5761C97.2153 26.5284 97.224 26.4773 97.2225 26.4261V14.28C97.2244 14.2285 97.2158 14.1772 97.1973 14.1293C97.1789 14.0814 97.151 14.0378 97.1155 14.0013C97.0799 13.9647 97.0375 13.936 96.9906 13.9168C96.9437 13.8976 96.8935 13.8884 96.843 13.8898ZM92.5872 24.6171C91.3799 24.6171 90.4782 23.6582 90.4782 22.3275C90.4782 20.9969 91.384 20.0381 92.5872 20.0381C93.7903 20.0381 94.6961 20.9969 94.6961 22.3275C94.6961 23.6582 93.7966 24.6171 92.5904 24.6171H92.5872ZM106.86 18.4516L104.13 27.9955C103.603 29.6937 102.427 30.7095 100.598 30.7095C99.766 30.7095 99.0088 30.5364 98.4152 30.1903C98.0693 29.9893 97.7825 29.8055 97.7825 29.511C97.7825 29.3283 97.8405 29.2337 97.946 29.0628L98.488 28.2351C98.6408 28.004 98.7537 27.9287 98.9182 27.9287C99.0486 27.932 99.1746 27.9768 99.2788 28.0567C99.6194 28.2814 99.9358 28.4748 100.418 28.4748C100.981 28.4748 101.411 28.291 101.643 27.6074L101.877 26.8152H100.772C100.659 26.8189 100.548 26.7821 100.459 26.7113C100.369 26.6404 100.307 26.5399 100.283 26.4272L97.8395 18.4516C97.7488 18.1377 97.8321 17.8238 98.2844 17.8238H100.209C100.444 17.8238 100.609 17.9055 100.712 18.2484L102.516 24.6708L104.203 18.2484C104.257 18.027 104.402 17.8238 104.692 17.8238H106.518C106.877 17.8228 106.986 18.0807 106.86 18.4516ZM43.7856 21.2903V26.3885C43.7864 26.4441 43.7763 26.4993 43.7559 26.5507C43.7354 26.6023 43.705 26.6491 43.6664 26.6883C43.6279 26.7276 43.582 26.7586 43.5314 26.7796C43.4808 26.8004 43.4268 26.8107 43.3723 26.8098H41.8622C41.8077 26.8108 41.7535 26.8006 41.703 26.7798C41.6523 26.759 41.6063 26.728 41.5677 26.6887C41.5292 26.6493 41.4988 26.6025 41.4783 26.551C41.4579 26.4993 41.4479 26.4441 41.4489 26.3885V25.0503C40.4905 26.2843 38.8233 27.0613 36.9379 27.0613C33.3971 27.0613 30.6301 24.3462 30.6301 20.4809C30.6301 16.4641 33.6174 13.6952 37.3914 13.6952C40.1772 13.6952 42.4042 14.9163 43.3933 17.3724C43.421 17.4373 43.4364 17.507 43.4386 17.5777C43.4386 17.6938 43.3638 17.7819 43.1223 17.8668L41.3593 18.5591C41.2529 18.604 41.1337 18.6059 41.0261 18.5644C40.9317 18.5076 40.8577 18.4213 40.8152 18.3183C40.1825 17.0918 39.0563 16.2588 37.3228 16.2588C35.0747 16.2588 33.4645 18.0485 33.4645 20.3691C33.4645 22.6188 34.8353 24.4687 37.3871 24.4687C38.7294 24.4687 39.7998 23.8238 40.2985 23.1155H38.7063C38.6518 23.1163 38.5976 23.106 38.547 23.0852C38.4966 23.0643 38.4507 23.0334 38.412 22.994C38.3735 22.9547 38.3431 22.9079 38.3227 22.8563C38.3021 22.8049 38.292 22.7497 38.2929 22.6941V21.3086C38.292 21.253 38.3021 21.1978 38.3227 21.1463C38.3431 21.0948 38.3735 21.048 38.412 21.0087C38.4507 20.9694 38.4966 20.9384 38.547 20.9175C38.5976 20.8967 38.6518 20.8864 38.7063 20.8872H43.3723C43.4257 20.8845 43.4792 20.8928 43.5295 20.9119C43.5797 20.9309 43.6255 20.9602 43.6642 20.9979C43.7029 21.0357 43.7336 21.0811 43.7544 21.1314C43.7754 21.1816 43.7859 21.2357 43.7856 21.2903ZM106.91 15.9353V15.8117C106.91 15.803 106.913 15.7946 106.918 15.788C106.925 15.7825 106.932 15.7795 106.941 15.7794H107.711C107.715 15.7793 107.719 15.78 107.723 15.7814C107.727 15.7829 107.731 15.7852 107.733 15.788C107.739 15.7946 107.742 15.803 107.742 15.8117V15.9353C107.742 15.9436 107.739 15.9516 107.733 15.9578C107.731 15.9607 107.727 15.9629 107.723 15.9644C107.719 15.9659 107.715 15.9666 107.711 15.9664H107.43V16.7414C107.429 16.7499 107.426 16.758 107.42 16.7639C107.414 16.7699 107.406 16.7734 107.398 16.7737H107.253C107.249 16.7737 107.245 16.7728 107.241 16.7711C107.238 16.7695 107.234 16.767 107.232 16.764C107.229 16.7611 107.226 16.7576 107.225 16.7537C107.223 16.7498 107.222 16.7457 107.222 16.7414V15.9664H106.941C106.936 15.9668 106.932 15.9662 106.928 15.9647C106.925 15.9633 106.921 15.961 106.918 15.958C106.915 15.9551 106.913 15.9515 106.912 15.9476C106.91 15.9436 106.91 15.9394 106.91 15.9353ZM108.258 15.8074L108.468 16.305L108.679 15.8074C108.683 15.7985 108.689 15.791 108.696 15.7859C108.705 15.7812 108.715 15.779 108.725 15.7794H108.969C108.973 15.7791 108.977 15.7797 108.981 15.7811C108.985 15.7825 108.988 15.7846 108.991 15.7875C108.994 15.7903 108.996 15.7938 108.998 15.7975C108.999 15.8013 109 15.8054 109 15.8095V16.7425C109 16.7466 109 16.7507 108.998 16.7545C108.997 16.7584 108.995 16.7619 108.992 16.7648C108.989 16.7678 108.986 16.7701 108.982 16.7716C108.978 16.7731 108.974 16.7738 108.97 16.7737H108.833C108.829 16.7738 108.825 16.7731 108.821 16.7716C108.818 16.7702 108.814 16.7679 108.811 16.7651C108.808 16.7622 108.806 16.7587 108.804 16.7548C108.803 16.7509 108.802 16.7467 108.803 16.7425V16.0385L108.576 16.5501C108.573 16.5598 108.567 16.5683 108.559 16.5748C108.55 16.5797 108.541 16.582 108.531 16.5813H108.419C108.409 16.5818 108.4 16.5796 108.391 16.5748C108.383 16.5686 108.378 16.56 108.375 16.5501L108.149 16.0385V16.7425C108.149 16.7466 108.149 16.7506 108.147 16.7545C108.146 16.7583 108.144 16.7618 108.141 16.7647C108.138 16.7676 108.135 16.7699 108.131 16.7715C108.127 16.773 108.123 16.7738 108.119 16.7737H107.979C107.975 16.7736 107.971 16.7728 107.968 16.7712C107.964 16.7695 107.961 16.7672 107.958 16.7643C107.956 16.7614 107.954 16.758 107.952 16.7542C107.951 16.7505 107.95 16.7465 107.951 16.7425V15.8095C107.951 15.8054 107.951 15.8013 107.953 15.7975C107.954 15.7938 107.956 15.7903 107.959 15.7875C107.962 15.7846 107.966 15.7825 107.97 15.7811C107.973 15.7797 107.977 15.7791 107.981 15.7794H108.219C108.228 15.7791 108.237 15.7814 108.246 15.7859C108.252 15.7918 108.256 15.7992 108.258 15.8074Z" fill="black"/>
</svg>
