<svg width="73" height="20" viewBox="0 0 73 20" fill="none" xmlns="http://www.w3.org/2000/svg">
<path d="M46.9355 4.80979C44.0216 4.82424 41.6479 7.30186 41.6613 10.3867C41.6747 13.4716 44.0721 15.9259 46.986 15.9121C49.8999 15.8982 52.2744 13.42 52.2603 10.3364C52.2462 7.25278 49.8495 4.7966 46.9343 4.81105L46.9355 4.80979ZM46.9757 13.6497C46.1496 13.6548 45.3557 13.3193 44.7687 12.7184C44.1816 12.1173 43.8562 11.2986 43.847 10.444C43.8379 9.58938 44.1664 8.76815 44.7474 8.16089C45.3283 7.55359 46.1198 7.21688 46.9459 7.20747C47.772 7.198 48.5659 7.53788 49.1529 8.13884C49.74 8.73986 50.0654 9.55857 50.0745 10.4132C50.0831 12.128 48.6328 13.6415 46.9757 13.6503V13.6497ZM58.7407 7.4246C57.2168 7.43215 56.0301 8.73981 56.0377 10.3163L56.0619 15.593L53.743 15.6043L53.6962 5.11816L56.015 5.10683L56.0231 6.75119C56.0231 6.75119 57.0083 5.10245 58.9965 5.09298L59.6595 5.08921L59.6706 7.41891L58.7407 7.4246ZM35.6084 5.20752L37.364 12.3955L39.1866 5.1899L41.5056 5.17917L38.6367 15.6855L36.3846 15.6962L34.5633 8.37229L32.8076 15.7132L30.5549 15.7239L27.5267 5.25217L29.7787 5.2415L31.7984 12.4282L33.4226 5.22388L35.6084 5.20752ZM66.4359 9.8556C68.0203 8.88898 69.1399 7.10114 69.1304 5.04516L66.8115 5.05648C66.82 6.83869 65.4346 8.28484 63.7787 8.29114L63.4469 8.2924L63.4107 0L61.0913 0.0112772L61.1628 15.5679L63.4802 15.5572L63.4585 10.6234L63.7233 10.6221C63.9881 10.6208 64.254 10.7568 64.3219 10.9619L67.5883 15.537L70.3049 15.5244L66.4359 9.8556Z" fill="#14A800"/>
<path d="M21.7844 4.44097C19.3196 4.45331 17.4452 6.14237 16.744 8.83369C15.5673 6.95762 14.6754 6.25286 14.1487 4.44097L11.56 4.44097V10.1358C11.5628 10.8131 11.306 11.4638 10.8458 11.945C10.3856 12.4262 9.7598 12.6984 9.10594 12.7018C8.45208 12.7048 7.82381 12.4387 7.35929 11.962C6.89472 11.4854 6.63192 10.8372 6.62862 10.1599V4.44096L4.03217 4.44097L4.03217 10.1722C4.04588 13.1283 6.32597 15.4709 9.11664 15.4567C11.9074 15.4425 14.1678 13.0795 14.1547 10.1228L14.1487 8.91327C14.6718 9.98525 15.326 11.1245 16.0451 12.1298L14.4585 20L17.1181 19.9877L18.262 14.2693C19.3029 14.9371 20.4665 15.3339 21.8344 15.3271C24.6894 15.3129 27.0148 12.8833 26.9999 9.79147C26.989 8.36699 26.4346 7.00477 25.4576 6.0022C24.4805 4.99964 23.1598 4.43884 21.7844 4.44097ZM21.8213 12.5728C20.7834 12.5778 19.7438 12.1125 18.8971 11.3768L19.1516 10.3012V10.2395C19.3422 9.09535 19.9154 7.14399 21.8624 7.13535C22.5489 7.13417 23.2081 7.4139 23.6965 7.91367C24.1849 8.4134 24.4629 9.09273 24.4702 9.80381C24.4118 11.3497 23.1845 12.566 21.8213 12.5728Z" fill="#14A800"/>
</svg>
